<?xml version="1.0" encoding="UTF-8" standalone="no"?>
<!-- Created with Inkscape (http://www.inkscape.org/) -->

<svg
   xmlns:dc="http://purl.org/dc/elements/1.1/"
   xmlns:cc="http://creativecommons.org/ns#"
   xmlns:rdf="http://www.w3.org/1999/02/22-rdf-syntax-ns#"
   xmlns:svg="http://www.w3.org/2000/svg"
   xmlns="http://www.w3.org/2000/svg"
   xmlns:sodipodi="http://sodipodi.sourceforge.net/DTD/sodipodi-0.dtd"
   xmlns:inkscape="http://www.inkscape.org/namespaces/inkscape"
   width="210mm"
   height="297mm"
   viewBox="0 0 210 297"
   version="1.1"
   id="svg8"
   inkscape:version="0.92.4 5da689c313, 2019-01-14"
   sodipodi:docname="user.svg">
  <defs
     id="defs2" />
  <sodipodi:namedview
     id="base"
     pagecolor="#ffffff"
     bordercolor="#666666"
     borderopacity="1.0"
     inkscape:pageopacity="0.0"
     inkscape:pageshadow="2"
     inkscape:zoom="1.4"
     inkscape:cx="-191.02578"
     inkscape:cy="762.19353"
     inkscape:document-units="mm"
     inkscape:current-layer="layer1"
     showgrid="false"
     inkscape:window-width="1366"
     inkscape:window-height="660"
     inkscape:window-x="0"
     inkscape:window-y="27"
     inkscape:window-maximized="1" />
  <metadata
     id="metadata5">
    <rdf:RDF>
      <cc:Work
         rdf:about="">
        <dc:format>image/svg+xml</dc:format>
        <dc:type
           rdf:resource="http://purl.org/dc/dcmitype/StillImage" />
        <dc:title></dc:title>
      </cc:Work>
    </rdf:RDF>
  </metadata>
  <g
     inkscape:label="Camada 1"
     inkscape:groupmode="layer"
     id="layer1">
    <g
       id="g113"
       transform="matrix(0.52178436,0,0,0.52178436,-389.35756,-174.17392)"
       style="fill:#ffffff"
       inkscape:export-xdpi="96"
       inkscape:export-ydpi="96">
      <g
         id="g139"
         style="fill:#ffffff"
         transform="matrix(1.5128835,0,0,1.5128835,-265.73654,-262.43954)"
         inkscape:export-xdpi="96"
         inkscape:export-ydpi="96">
        <path
           inkscape:connector-curvature="0"
           id="path141"
           d="m 558.5,506.8 v -3.6 c 0,-0.3 -0.3,-0.6 -0.6,-0.6 -0.1,0 -0.2,0 -0.3,0.1 v 0 l -10.1,5.8 c -0.1,0 -0.1,0.1 -0.1,0.1 -0.2,0.1 -0.3,0.3 -0.3,0.5 v 0 0 0 c 0,0 0,0 0,0 0,0 0,0 0,0 v 0 c 0,0 0,0 0,0.1 0,0.2 0.1,0.3 0.2,0.4 0,0 0.1,0 0.1,0.1 l 3.1,1.8 h 0.1 c 0,0 0.1,0 0.2,0.1 0,0 0,0 0,0 0,0 0,0 0.1,0 0,0 0,0 0,0 0.1,0 0.2,0 0.3,0 0,0 0.3,-0.2 0.3,-0.2 l 6.7,-3.9 c 0,0 0,0 0.1,0 0.2,-0.1 0.3,-0.3 0.3,-0.4 -0.1,-0.3 -0.1,-0.2 -0.1,-0.3 z m -10.2,2.3 z"
           class="white__svg"
           style="fill:#ffffff" />
        <path
           inkscape:connector-curvature="0"
           id="path143"
           d="m 550.3,505.2 v -3.5 c 0,0 0,0 0,0 0,0 0,0 0,0 0,-0.3 -0.3,-0.6 -0.6,-0.6 -0.1,0 -0.2,0 -0.3,0.1 h -0.1 l -5.7,3.3 c 0,0 -0.1,0 -0.1,0.1 -0.2,0.1 -0.3,0.3 -0.3,0.5 v 1.8 c 0,0 0,0.1 0,0.1 v 0 c 0,0 0,0 0,0 0,0 0,0.1 0,0.1 0,0.2 0.1,0.3 0.2,0.4 0,0 0.1,0.1 0.1,0.1 l 1.5,0.9 c 0,0 0,0 0,0 0.1,0 0.2,0.1 0.3,0.1 v 0 0 0 c 0,0 0,0 0,0 0,0 0,0 0,0 v 0 0 c 0,0 0,0 0.1,0 0,0 0,0 0,0 0.1,0 0.1,0 0.2,-0.1 0,0 0.1,0 0.1,0 l 4.1,-2.4 c 0.1,0 0.1,-0.1 0.2,-0.1 0.1,-0.1 0.2,-0.2 0.2,-0.4 0.1,-0.2 0.1,-0.3 0.1,-0.4 z"
           class="white__svg"
           style="fill:#ffffff" />
        <path
           inkscape:connector-curvature="0"
           id="path145"
           d="m 554.4,496.1 v 0 l -3.2,-1.8 h -0.1 c -0.1,0 -0.2,-0.1 -0.3,-0.1 -0.1,0 -0.2,0 -0.3,0.1 h -0.1 l -6.9,4 v 0 c -0.2,0.1 -0.3,0.3 -0.3,0.5 v 3.6 c 0,0.3 0.3,0.6 0.6,0.6 0.1,0 0.2,0 0.3,-0.1 h 0.1 l 10.1,-5.8 v 0 c 0.2,-0.1 0.3,-0.3 0.3,-0.5 0,-0.2 -0.1,-0.4 -0.2,-0.5 z"
           class="white__svg"
           style="fill:#ffffff" />
        <path
           inkscape:connector-curvature="0"
           id="path147"
           d="m 558.2,498.2 v 0 l -1.5,-0.9 h -0.1 c -0.1,0 -0.2,-0.1 -0.3,-0.1 -0.1,0 -0.2,0 -0.3,0.1 h -0.1 c 0,0 -3.2,1.9 -4.4,2.6 -0.2,0.1 -0.3,0.3 -0.3,0.5 0,0 0,0 0,0 0,0.1 0,2.7 0,2.7 v 0 c 0,0 0,0.9 0,1 v 0 0 c 0,0.3 0.3,0.6 0.6,0.6 0.1,0 0.2,0 0.3,-0.1 l 6,-3.5 c 0.2,-0.1 0.3,-0.3 0.3,-0.5 v -1.9 c 0.1,-0.2 -0.1,-0.4 -0.2,-0.5 z"
           class="white__svg"
           style="fill:#ffffff" />
      </g>
    </g>
    <text
       xml:space="preserve"
       style="font-style:normal;font-variant:normal;font-weight:normal;font-stretch:normal;font-size:4.87819147px;line-height:1.25;font-family:tes;-inkscape-font-specification:tes;letter-spacing:0px;word-spacing:0px;fill:#000000;fill-opacity:1;stroke:none;stroke-width:0.12195479"
       x="-85.887856"
       y="88.196686"
       id="text898"
       inkscape:export-xdpi="96"
       inkscape:export-ydpi="96"><tspan
         sodipodi:role="line"
         id="tspan896"
         x="-85.887856"
         y="88.196686"
         style="font-style:normal;font-variant:normal;font-weight:normal;font-stretch:normal;font-family:sans-serif;-inkscape-font-specification:sans-serif;fill:#ffffff;stroke-width:0.12195479">Migrar e-mails</tspan></text>
  </g>
</svg>
